# xmcd
#
# Track frame offsets:
#	150
#	1678
#	16121
#	24236
#	28082
#	32837
#	37754
#	51774
#	60220
#	69959
#	77623
#	85542
#	89305
#	99230
#	117207
#	124078
#	129708
#	140413
#	154005
#	165425
#	179464
#	189132
#	195883
#	207148
#
# Disc length: 2988 seconds
#
# Revision: 0
# Processed by: cddbd v1.5.2PL0 Copyright (c) Steve Scherf et al.
# Submitted via: dBpowerAMP V4.0
#
DISCID=0d0baa18
DTITLE=You Are Ban Sherman - Baneris No Canciones (Greatest Hits)
DYEAR=1900
DGENRE=
TTITLE0=the dogs and da' kitties
TTITLE1=Boars' Breakfast
TTITLE2=108 Bad Numbers
TTITLE3=Waltz in Plain D
TTITLE4=Madge
TTITLE5=TSA Regulations
TTITLE6=Wolf-Planet Venus
TTITLE7=deqd
TTITLE8=Trash-can
TTITLE9=Something in the key of something else
TTITLE10=Town full of good people gone bad
TTITLE11=My friend Duncan
TTITLE12=3hree Bad Instruments
TTITLE13=Abby's Song
TTITLE14=Peeled Oranges
TTITLE15=He's singing a song
TTITLE16=Laramie
TTITLE17=Our Song (k.k. Teakettle)
TTITLE18=New Alarm Bells
TTITLE19=This is another song
TTITLE20=My Ankels Are Biting Me
TTITLE21=Orange Peel
TTITLE22=Thanks, Nobuo
TTITLE23=Christmas Time (without part)
EXTD=
EXTT0=
EXTT1=
EXTT2=
EXTT3=
EXTT4=
EXTT5=
EXTT6=
EXTT7=
EXTT8=
EXTT9=
EXTT10=
EXTT11=
EXTT12=
EXTT13=
EXTT14=
EXTT15=
EXTT16=
EXTT17=
EXTT18=
EXTT19=
EXTT20=
EXTT21=
EXTT22=
EXTT23=
PLAYORDER=
